<svg width="24" height="24" viewBox="0 0 24 24" fill="none" xmlns="http://www.w3.org/2000/svg">
<path d="M5.6389 5.07407C6.18517 4.70988 6.86382 4.60395 7.4951 4.78431L9.32667 5.30762C9.77338 5.43525 10.2357 5.5 10.7003 5.5H11.5H14.5H15.6319C15.8764 5.5 16.12 5.47001 16.3572 5.4107L17.5159 5.12103C17.8163 5.04594 18.134 5.13395 18.3529 5.35287V5.35287C18.4497 5.44963 18.5226 5.56758 18.5658 5.69739L18.8249 6.47444C18.9386 6.81559 18.9382 7.18568 18.8244 7.52683V7.52683C18.6261 8.12181 18.7802 8.78013 19.2237 9.22361V9.22361C19.4054 9.40537 19.5424 9.62696 19.6237 9.87082L19.7964 10.3889C19.9313 10.7937 20 11.2175 20 11.6441V11.75C20 12.2468 19.92 12.7403 19.7629 13.2115L19.5 14L19.4009 14.3965C19.1465 15.4142 18.46 16.27 17.5217 16.7392L17.3163 16.8419C17.1068 16.9466 16.9156 17.0844 16.75 17.25V17.25C16.5845 17.4156 16.4467 17.6068 16.3419 17.8162L16.0279 18.4443C15.6808 19.1385 15.5 19.9041 15.5 20.6803V21V22.5V23.5V23.5C15.5 23.7761 15.2762 24 15 24H12.5H9C8.72386 24 8.5 23.7761 8.5 23.5V23.5V23.5C8.50003 22.8753 8.18781 22.2918 7.668 21.9453L7.00005 21.5L4.50005 20L3.67196 19.586C2.9872 19.2436 2.63211 18.4716 2.81779 17.7288L2.87008 17.5197C2.95254 17.1898 3.17502 16.9125 3.47913 16.7604V16.7604C3.80703 16.5965 4.19297 16.5965 4.52087 16.7604L5 17L6.5 18L7.2889 18.3944C7.42179 18.4609 7.57821 18.4609 7.7111 18.3945V18.3945C8.04833 18.2258 8.06156 17.7494 7.7342 17.5624L5.59417 16.3395C5.21154 16.1209 4.92295 15.7689 4.7836 15.3508L3.89272 12.6781C3.63482 11.9045 3.57009 11.0795 3.70416 10.275L3.93551 8.88697C3.97844 8.62939 4.04148 8.37556 4.12406 8.12783L4.75718 6.22845C4.91456 5.75633 5.22481 5.35012 5.6389 5.07407V5.07407Z" fill="#F2F2F2"/>
<path d="M12 0.296997C5.37 0.296997 0 5.67 0 12.297C0 17.6 3.438 22.097 8.205 23.682C8.805 23.795 9.025 23.424 9.025 23.105C9.025 22.82 9.015 22.065 9.01 21.065C5.672 21.789 4.968 19.455 4.968 19.455C4.422 18.07 3.633 17.7 3.633 17.7C2.546 16.956 3.717 16.971 3.717 16.971C4.922 17.055 5.555 18.207 5.555 18.207C6.625 20.042 8.364 19.512 9.05 19.205C9.158 18.429 9.467 17.9 9.81 17.6C7.145 17.3 4.344 16.268 4.344 11.67C4.344 10.36 4.809 9.29 5.579 8.45C5.444 8.147 5.039 6.927 5.684 5.274C5.684 5.274 6.689 4.952 8.984 6.504C9.944 6.237 10.964 6.105 11.984 6.099C13.004 6.105 14.024 6.237 14.984 6.504C17.264 4.952 18.269 5.274 18.269 5.274C18.914 6.927 18.509 8.147 18.389 8.45C19.154 9.29 19.619 10.36 19.619 11.67C19.619 16.28 16.814 17.295 14.144 17.59C14.564 17.95 14.954 18.686 14.954 19.81C14.954 21.416 14.939 22.706 14.939 23.096C14.939 23.411 15.149 23.786 15.764 23.666C20.565 22.092 24 17.592 24 12.297C24 5.67 18.627 0.296997 12 0.296997" fill="#03658C"/>
</svg>
